<?xml version="1.0" encoding="UTF-8" standalone="no"?>
<!-- Created with Inkscape (http://www.inkscape.org/) -->

<svg
   xmlns:dc="http://purl.org/dc/elements/1.1/"
   xmlns:cc="http://creativecommons.org/ns#"
   xmlns:rdf="http://www.w3.org/1999/02/22-rdf-syntax-ns#"
   xmlns:svg="http://www.w3.org/2000/svg"
   xmlns="http://www.w3.org/2000/svg"
   xmlns:sodipodi="http://sodipodi.sourceforge.net/DTD/sodipodi-0.dtd"
   xmlns:inkscape="http://www.inkscape.org/namespaces/inkscape"
   width="200"
   height="89.788002"
   viewBox="0 0 200 89.788002"
   id="svg3361"
   version="1.1"
   inkscape:version="0.91 r13725"
   sodipodi:docname="node.svg">
  <defs
     id="defs3363" />
  <sodipodi:namedview
     id="base"
     pagecolor="#ffffff"
     bordercolor="#666666"
     borderopacity="1.0"
     inkscape:pageopacity="0.0"
     inkscape:pageshadow="2"
     inkscape:zoom="2.8284271"
     inkscape:cx="147.66413"
     inkscape:cy="36.268535"
     inkscape:document-units="px"
     inkscape:current-layer="layer1"
     showgrid="false"
     units="px"
     inkscape:window-width="1366"
     inkscape:window-height="716"
     inkscape:window-x="-8"
     inkscape:window-y="-8"
     inkscape:window-maximized="1" />
  <metadata
     id="metadata3366">
    <rdf:RDF>
      <cc:Work
         rdf:about="">
        <dc:format>image/svg+xml</dc:format>
        <dc:type
           rdf:resource="http://purl.org/dc/dcmitype/StillImage" />
        <dc:title></dc:title>
      </cc:Work>
    </rdf:RDF>
  </metadata>
  <g
     inkscape:label="Layer 1"
     inkscape:groupmode="layer"
     id="layer1"
     transform="translate(0,-962.57416)">
    <g
       id="layer1-9"
       transform="matrix(0.27426859,0,0,0.27426859,-1.8183966,960.71403)">
      <g
         id="g3416"
         transform="matrix(0.77462892,0,0,0.77462892,161.11279,4.3110434)">
        <path
           style="fill:#fefefe"
           d="m -199.30129,214.32094 0,-211.3097248 470.53609,0 470.53609,0 0,211.3097248 0,211.30971 -470.53609,0 -470.53609,0 0,-211.30971 z"
           id="path3432"
           inkscape:connector-curvature="0" />
        <path
           style="fill:#a0a0a0"
           d="m 383.96262,424.59052 c -2.56361,-1.02101 -104.71347,-59.81231 -107.51426,-61.87872 -0.74489,-0.54959 -1.97544,-1.97675 -2.73456,-3.17148 l -1.38022,-2.17223 -2.6791,2.87632 c -2.22812,2.39214 -11.49822,7.96217 -55.07032,33.08955 -28.81518,16.61729 -53.46287,30.59468 -54.77265,31.0609 -1.62634,0.57888 -3.7972,0.75115 -6.84658,0.54332 l -4.46516,-0.30433 -53.532936,-30.93453 C 60.798418,373.95476 40.608577,361.94439 39.152315,360.4968 l -2.281584,-2.26797 -0.0024,17.81645 c -0.0018,16.62046 -0.08024,17.94439 -1.164384,19.72245 -1.354587,2.2216 -3.994837,3.74987 -6.478294,3.74987 -1.931331,0 -65.121475,-35.77614 -68.189303,-38.60649 -0.941887,-0.86898 -2.345799,-2.91952 -3.119796,-4.55674 l -1.40727,-2.97678 -0.006,-39.93156 c -0.0064,-44.11809 0.04078,-43.52501 -3.750926,-47.13356 -1.050629,-1.00015 -8.340302,-5.52966 -16.198987,-10.06558 l -14.288516,-8.24712 -3.906647,0 -3.906654,0 -14.526834,8.33085 c -7.98976,4.58198 -15.31184,8.99141 -16.27128,9.79873 -0.95947,0.80733 -2.23628,2.5506 -2.83739,3.87392 -1.02527,2.25711 -1.09373,4.88941 -1.106,42.52344 -0.009,29.08432 -0.20641,40.76268 -0.71606,42.46376 -1.42895,4.76939 -3.31066,6.05668 -37.22258,25.46414 -28.71261,16.43195 -32.55173,18.46617 -34.82826,18.45439 -2.86166,-0.0148 -4.62225,-1.16498 -5.71835,-3.73574 -0.53849,-1.26295 -0.71001,-21.84008 -0.71001,-85.17853 0,-90.60561 -0.12233,-87.11153 3.15592,-90.14413 0.72008,-0.66613 25.78754,-15.28942 55.70546,-32.49618 39.49309,-22.71377 55.081832,-31.38787 56.898712,-31.66033 1.376377,-0.20639 3.653782,-0.0653 5.060904,0.31364 1.407115,0.37889 27.033832,14.77836 56.948252,31.99882 46.643732,26.8508 54.615444,31.63545 55.973854,33.59563 0.8712,1.25714 1.748497,2.2824 1.949549,2.27834 0.201051,-0.004 0.929855,-0.87476 1.619567,-1.9349 0.995839,-1.53068 12.334033,-8.31883 55.070325,-32.97046 29.598967,-17.0736 54.728897,-31.50229 55.844297,-32.06375 1.46621,-0.73805 3.03296,-0.95481 5.65587,-0.78249 3.55851,0.23379 4.66953,0.83974 58.10285,31.6891 29.96123,17.29792 54.97856,31.88727 55.59406,32.42077 0.6155,0.5335 1.76947,1.99367 2.56438,3.24481 l 1.44529,2.2748 1.64989,-2.2748 c 0.90744,-1.25114 2.70048,-2.9818 3.98452,-3.8459 3.81641,-2.56826 47.33752,-27.89448 59.78513,-34.79073 7.23648,-4.00917 7.55512,-4.12192 11.60942,-4.10801 l 4.16873,0.0143 10.41871,5.99949 c 5.73029,3.29972 12.02617,6.8922 13.99084,7.9833 1.96467,1.09109 11.20756,6.39595 20.53974,11.78856 19.30177,11.15356 28.36176,16.17257 29.19359,16.17257 0.36602,0 0.57416,-31.64618 0.57416,-87.29926 0,-67.076057 0.1686,-87.862076 0.72788,-89.728803 1.42254,-4.747946 3.80199,-6.36133 35.10897,-23.805355 16.27212,-9.066703 30.82842,-17.0176318 32.34735,-17.6687313 5.45399,-2.33786 10.36126,-0.8940648 11.55352,3.3992142 0.4302,1.5492784 0.62959,35.4689381 0.63185,107.4925351 0,57.87594 0.22975,105.22898 0.50641,105.22898 0.27672,0 0.99192,-0.54015 1.58936,-1.20033 0.5975,-0.66018 5.12648,-3.51214 10.06447,-6.33768 4.93799,-2.82553 28.93461,-16.65902 53.32582,-30.74108 24.39121,-14.08206 45.21256,-25.96514 46.26973,-26.40685 2.46572,-1.03025 6.8211,-1.02863 9.27253,0.004 2.59069,1.09067 105.58107,60.8765 108.08852,62.74525 1.09212,0.81393 2.49865,2.67662 3.12561,4.13932 1.04092,2.42837 1.13999,4.25462 1.13999,21.01675 0,16.61699 -0.10556,18.60184 -1.11355,20.9369 -0.61244,1.41879 -1.6171,3.02579 -2.23258,3.5711 -0.61548,0.54531 -15.72011,9.48725 -33.56587,19.87096 -35.28293,20.5297 -35.46398,20.61271 -39.29342,18.01643 -3.26499,-2.21361 -3.50105,-3.66296 -3.53855,-21.72922 -0.0327,-15.92592 -0.0554,-16.21467 -1.37313,-17.68848 -0.73675,-0.82405 -8.83834,-5.79533 -18.00346,-11.04727 -13.17551,-7.55011 -17.11914,-9.5491 -18.83822,-9.5491 -1.72236,0 -5.62117,1.98461 -18.75969,9.54932 -9.12197,5.25213 -17.32215,10.34665 -18.22262,11.32114 l -1.63724,1.77181 0.009,20.38151 c 0.007,15.1369 0.20092,20.76451 0.75539,21.8699 0.49361,0.98411 4.17195,3.45416 10.85646,7.29035 16.55295,9.49959 25.15786,14.76782 26.84897,16.43791 0.87678,0.86588 2.14417,2.77992 2.8165,4.25343 1.1835,2.59399 1.23018,3.89395 1.46939,40.9217 l 0.24707,38.24261 -2.09272,2.09269 c -3.15908,3.15906 -5.0351,2.91837 -13.45067,-1.72573 -3.80569,-2.10013 -28.08426,-15.89726 -53.95243,-30.6603 -33.39542,-19.05886 -47.58201,-27.46101 -48.92626,-28.9771 l -1.89323,-2.13522 -0.88394,1.68822 c -2.10838,4.02692 -1.29912,3.53113 -82.05126,50.26908 -14.62496,8.46467 -27.75252,15.79491 -29.1724,16.28942 -3.43421,1.19608 -8.51114,1.10741 -11.80956,-0.20625 z m 25.0049,-99.66776 18.75368,-10.86369 0.15265,-44.49024 c 0.11365,-33.13305 -0.0215,-44.49023 -0.52975,-44.49023 -0.37525,0 -2.72119,1.24459 -5.2131,2.76576 -2.49198,1.52116 -17.65841,10.3905 -33.70322,19.70964 -16.04482,9.31915 -30.96473,17.98965 -33.15537,19.26778 -3.72801,2.17513 -4.00675,2.4855 -4.35452,4.84874 -0.20435,1.38868 -0.28738,11.28972 -0.18451,22.00231 0.15708,16.35722 0.3301,19.61664 1.08007,20.34638 1.16436,1.13295 37.02643,21.79141 37.80504,21.77772 0.32744,-0.006 9.03451,-4.89914 19.34903,-10.87417 z m -236.35588,-0.7587 c 9.98708,-5.74894 18.49321,-10.88881 18.90252,-11.42192 0.5629,-0.73317 0.74419,-6.07423 0.74419,-21.92465 0,-19.09224 -0.0926,-21.06466 -1.04187,-22.18476 -1.38535,-1.6347 -35.96942,-21.52699 -37.41824,-21.52246 -0.62204,0.002 -9.43619,4.79431 -19.58699,10.6497 l -18.456,10.64616 -0.32313,21.94599 c -0.17773,12.07029 -0.23109,22.24165 -0.11859,22.60301 0.30548,0.98126 36.5243,21.66936 37.92938,21.66517 0.66572,-0.002 9.38165,-4.7073 19.36873,-10.45624 z m 448.01984,-9.52218 c -5.89902,-3.07594 -6.91969,-4.47954 -4.16898,-5.73285 1.25507,-0.57184 1.88061,-0.47179 3.80206,0.60811 1.26489,0.71092 2.72345,1.29257 3.24123,1.29257 0.51784,0 4.97449,-2.31942 9.90367,-5.15426 l 8.96223,-5.15427 -0.1614,-11.33743 -0.16134,-11.33744 -8.93032,-5.21304 c -4.91168,-2.86717 -9.24872,-5.22461 -9.6379,-5.23875 -0.38919,-0.0142 -4.8097,2.34538 -9.82336,5.24338 l -9.11578,5.2691 -0.16181,11.0534 -0.16176,11.0534 1.72123,1.22564 c 2.39166,1.70301 4.80761,2.54084 6.12293,2.12338 1.03407,-0.32821 1.11206,-1.14051 1.11206,-11.58206 0,-9.41447 0.15116,-11.38029 0.93554,-12.16465 0.51457,-0.51456 1.16523,-0.93556 1.44588,-0.93556 0.28065,0 0.93131,0.421 1.44588,0.93556 0.72544,0.72544 0.93554,2.26918 0.93554,6.87355 l 0,5.93801 2.01111,-0.37729 c 2.02272,-0.37946 2.45357,-0.14171 4.11158,2.26879 1.60597,2.33486 10.30071,1.79787 9.83883,-0.60764 -0.15336,-0.79859 -1.1947,-1.18942 -4.48421,-1.68295 -7.52648,-1.12924 -10.2866,-3.0993 -10.2866,-7.3422 0,-7.13288 14.75795,-9.03758 18.67301,-2.40999 1.21089,2.04994 1.21666,2.62503 0.0381,3.80357 -1.36956,1.36955 -2.43143,1.15547 -4.21881,-0.85051 -1.42087,-1.59467 -1.95984,-1.78606 -5.02997,-1.78606 -3.32238,0 -4.80505,0.72801 -3.71091,1.82216 0.29024,0.29023 2.5792,0.92021 5.0866,1.39996 7.25654,1.3884 9.40398,2.94846 9.40398,6.83176 0,4.68134 -3.62517,7.21141 -10.33274,7.21141 -5.05021,0 -8.21458,-1.48105 -9.87217,-4.62056 l -1.17523,-2.22602 -0.0262,4.64356 c -0.0304,5.38812 -0.96316,7.68684 -3.69096,9.09745 -2.38374,1.23267 -4.43242,0.81828 -9.23639,-1.86824 -5.40077,-3.02029 -5.55496,-3.47048 -5.55496,-16.21953 0,-6.0962 0.27523,-11.44656 0.64304,-12.50176 0.54457,-1.5621 2.3095,-2.80675 11.52309,-8.12613 5.98397,-3.45482 11.2381,-6.28149 11.67575,-6.28149 0.43764,0 5.59115,2.74608 11.4523,6.10239 7.4473,4.2646 10.90922,6.58655 11.49541,7.71005 0.63774,1.22243 0.83874,4.38866 0.83874,13.21345 0,11.19565 -0.0476,11.65863 -1.33955,13.10116 -1.67223,1.8668 -20.68352,12.86086 -22.23073,12.85588 -0.6253,-0.002 -1.93377,-0.41918 -2.90771,-0.92701 z"
           id="path3430"
           inkscape:connector-curvature="0" />
        <path
           style="fill:#78bc90"
           d="m 386.01494,425.14275 c -1.70132,-0.68909 -104.03608,-59.77885 -107.86305,-62.2819 -1.96388,-1.28448 -3.56078,-2.91509 -4.32842,-4.41979 -0.66903,-1.31141 -1.4119,-2.36983 -1.65083,-2.35204 -0.23893,0.0178 -1.23814,1.2754 -2.22048,2.79472 -1.69228,2.61734 -4.05262,4.0712 -44.94929,27.68659 -73.39687,42.38234 -66.43044,38.54753 -70.02668,38.54753 -1.73027,0 -3.8953,-0.32599 -4.81118,-0.72443 -2.19959,-0.95689 -103.758605,-59.5019 -107.768755,-62.12469 -1.708912,-1.11769 -3.528716,-2.84745 -4.043995,-3.8439 -0.515286,-0.99645 -1.193383,-1.6532 -1.506885,-1.45945 -0.342579,0.21173 -0.569999,7.47188 -0.569999,18.19692 0,19.69358 -0.220537,21.13373 -3.495662,22.82736 -0.991873,0.51291 -2.553459,0.93437 -3.470192,0.93655 -1.100156,0.002 -12.69727,-6.30056 -34.1136315,-18.5412 -17.8457625,-10.19986 -33.0757075,-19.10965 -33.8443285,-19.79953 -0.768615,-0.68989 -1.974209,-2.32599 -2.679097,-3.63577 -1.267719,-2.35561 -1.285061,-2.8331 -1.600355,-44.05626 -0.35301,-46.15463 -0.237577,-44.84602 -4.236099,-48.02108 -1.096733,-0.87086 -8.42389,-5.28952 -16.282575,-9.81923 l -14.288516,-8.23584 -3.90988,-0.004 -3.909874,-0.004 -15.093386,8.63264 c -8.30136,4.74796 -15.929,9.45556 -16.95032,10.46133 -1.02132,1.00579 -2.18157,2.91224 -2.57835,4.23656 -0.5336,1.78105 -0.72142,12.7084 -0.72142,41.97077 0,44.34909 0.05,43.75419 -4.00059,47.58291 -1.23785,1.17003 -16.61662,10.34127 -34.17504,20.38052 -35.1146,20.07721 -34.48729,19.80577 -38.16924,16.51595 l -1.94429,-1.73723 0,-84.82627 0,-84.82628 2.43404,-2.87175 c 2.14502,-2.53074 8.79046,-6.53126 55.96336,-33.68959 29.44112,-16.94981 54.436901,-31.12257 55.546178,-31.49502 5.029933,-1.68884 4.019461,-2.19726 62.306958,31.35004 46.178313,26.57787 54.813555,31.75544 56.882597,34.10599 l 2.439354,2.77125 1.15531,-1.48564 c 0.635416,-0.81711 1.648031,-2.02147 2.250256,-2.67636 0.60222,-0.65489 25.44211,-15.25597 55.199744,-32.44685 l 54.104793,-31.25613 3.95831,-0.19533 c 2.87259,-0.14175 4.50559,0.0845 5.95355,0.82479 5.16932,2.64294 106.43715,61.30635 108.26608,62.71742 1.14606,0.88422 2.61956,2.72288 3.27446,4.08592 1.36093,2.83255 1.90032,3.0751 2.62824,1.18186 1.01693,-2.64495 4.73744,-5.59484 13.78027,-10.92598 15.67077,-9.23861 42.90533,-24.97664 47.59213,-27.50205 2.45584,-1.32329 5.93867,-3.2266 7.73962,-4.22958 4.769,-2.65595 8.58009,-2.56625 14.04995,0.33069 4.21126,2.23036 27.42607,15.49981 47.56927,27.19033 6.22146,3.61075 13.71234,7.82554 16.64642,9.3662 2.93403,1.54067 5.40958,3.03393 5.5012,3.31835 0.25987,0.80654 -5.91723,4.50194 -51.02233,30.52388 -12.60664,7.27299 -23.39,13.77402 -23.96303,14.44672 -0.95026,1.11555 -1.04187,3.10527 -1.04187,22.62906 0,12.77169 0.23422,21.84361 0.58069,22.49098 0.31938,0.59677 9.06502,5.98152 19.43476,11.96613 17.53952,10.12244 18.97151,10.83677 20.53838,10.24534 3.25837,-1.2299 37.41414,-21.26307 37.78975,-22.16458 0.20909,-0.50188 0.32971,-60.6135 0.26803,-133.58137 l -0.11211,-132.668858 1.59252,-3.25496 c 1.20422,-2.461343 2.33986,-3.739937 4.65764,-5.244053 2.72643,-1.769271 57.93582,-32.6461441 62.71992,-35.0772809 3.56111,-1.8096458 7.28107,-0.8705172 9.00456,2.2732873 0.9206,1.6792757 1.00913,10.0390506 1.15243,108.8340446 0.11181,77.06205 0.3378,107.01505 0.80736,107.01505 0.3587,0 1.16386,-0.65053 1.78928,-1.44562 0.62542,-0.7951 5.2184,-3.78169 10.2067,-6.63687 4.98824,-2.85517 28.8949,-16.63351 53.12584,-30.61853 24.23094,-13.98502 44.91369,-25.86742 45.96158,-26.40534 1.12742,-0.57872 3.32803,-0.97804 5.38986,-0.97804 3.27928,0 3.99096,0.29127 12.08547,4.94621 23.17579,13.32777 99.20481,57.67138 99.988,58.31761 0.49117,0.40526 1.76374,1.75082 2.82794,2.99014 l 1.9349,2.25329 0,18.49415 c 0,20.36147 -0.0447,20.64941 -3.74395,24.17913 -3.09543,2.95345 -66.4319,39.44427 -68.46277,39.44427 -2.22657,0 -4.90954,-1.59128 -5.73404,-3.40086 -0.41038,-0.90068 -0.64608,-6.93571 -0.64608,-16.54224 0,-8.64662 -0.27732,-16.41725 -0.64745,-18.14323 l -0.64745,-3.01899 -6.94332,-4.08557 c -28.86733,-16.98603 -30.72502,-17.85761 -34.21993,-16.05548 -0.71526,0.3688 -8.74439,4.9549 -17.84261,10.19135 -12.46447,7.17388 -16.75709,9.93646 -17.41413,11.20699 -1.26715,2.4504 -1.29091,42.07375 -0.0268,44.51848 0.6106,1.18071 4.37116,3.65843 13.54432,8.92396 24.31049,13.95449 25.9286,15.15922 27.24172,20.2819 0.30202,1.17847 0.73687,18.8936 0.9662,39.36697 l 0.41704,37.22432 -1.57894,1.87651 c -2.57854,3.06441 -4.50725,3.09832 -10.11555,0.17783 -2.65469,-1.38242 -26.92927,-15.10199 -53.9435,-30.48792 -39.28782,-22.37633 -49.62705,-28.51467 -51.6668,-30.67411 -1.40254,-1.48484 -2.64218,-2.59697 -2.75477,-2.47141 -0.11258,0.12555 -0.77098,1.35138 -1.46308,2.72405 -0.69216,1.37267 -2.13161,3.15026 -3.19884,3.9502 -2.46834,1.85016 -101.53325,59.50971 -107.43747,62.53269 -2.01414,1.03125 -7.32864,1.25935 -9.43782,0.40508 z M 172.65747,324.80345 c 9.86312,-5.68918 18.44218,-10.80482 19.06459,-11.36809 1.07225,-0.97037 1.13149,-2.15202 1.12869,-22.51347 -0.003,-21.40958 -0.008,-21.49512 -1.33955,-23.04729 -1.26752,-1.47744 -33.12705,-20.1741 -36.63056,-21.49652 -1.52735,-0.57651 -3.11206,0.21717 -20.66747,10.35101 -15.02435,8.67279 -19.09871,11.28158 -19.42045,12.43478 -0.22394,0.80266 -0.43387,10.99564 -0.46651,22.65105 -0.0571,20.39375 -0.015,21.23177 1.11774,22.25692 2.59933,2.35236 37.21304,21.7318 38.23561,21.40725 0.57473,-0.18242 9.11479,-4.98645 18.97791,-10.67564 z m 445.98659,-11.65122 c -2.16197,-1.23979 -3.10209,-2.13295 -2.9707,-2.82234 0.28398,-1.49068 2.61915,-1.56543 5.00098,-0.1601 1.15148,0.6794 2.36939,1.23528 2.70648,1.23528 0.33709,0 4.8762,-2.44932 10.08698,-5.44294 l 9.47418,-5.44293 0,-11.21953 0,-11.21954 -2.23258,-1.38446 c -1.22792,-0.76146 -5.62914,-3.33161 -9.78055,-5.71144 l -7.54791,-4.32698 -9.71738,5.61399 -9.71732,5.614 -0.16253,10.87769 c -0.12151,8.1305 0.0286,11.10914 0.59535,11.79413 1.32949,1.60765 6.43519,3.65738 7.8285,3.14284 1.21655,-0.44924 1.27561,-0.91475 1.56203,-12.30661 l 0.29768,-11.83971 1.48839,0 1.48839,0 0.16104,12.38723 0.16098,12.38723 -1.75242,1.75245 c -2.30933,2.30931 -4.81511,2.28888 -9.351,-0.0762 -6.32881,-3.29999 -6.18622,-2.91058 -6.18622,-16.89223 0,-10.67687 0.12294,-12.24671 1.04187,-13.30102 1.48601,-1.70497 20.74467,-12.62968 22.26425,-12.62968 1.67533,0 21.7857,11.69543 22.54276,13.11001 0.33298,0.62217 0.5888,6.37519 0.5888,13.24036 0,11.82828 -0.0345,12.17175 -1.33955,13.37065 -2.50983,2.30551 -20.129,12.07499 -21.76688,12.06927 -0.88042,-0.003 -3.02405,-0.82179 -4.76362,-1.81938 z m 3.5735,-14.26487 c -1.96044,-1.19528 -4.0424,-4.87861 -3.37126,-5.9645 0.19349,-0.31303 1.1463,-0.56915 2.11744,-0.56915 1.32586,0 1.90377,0.36324 2.32016,1.4584 1.1029,2.90095 9.30623,3.45412 10.96346,0.73931 0.96275,-1.57704 -0.74128,-2.59773 -5.18762,-3.10739 -4.46118,-0.51136 -7.97853,-1.83268 -8.75863,-3.29026 -0.31786,-0.59398 -0.57797,-2.14541 -0.57797,-3.44761 0,-4.27374 4.30228,-6.56696 11.0196,-5.87367 3.74872,0.3869 5.85848,1.6234 6.84867,4.01387 1.53024,3.69436 -0.944,4.76601 -4.0814,1.76774 -1.54738,-1.47878 -2.36242,-1.78607 -4.73735,-1.78607 -1.57763,0 -3.38841,0.38549 -4.02407,0.85665 -1.85774,1.37707 -0.0911,2.48001 5.69094,3.55287 6.49723,1.20557 7.97924,2.26957 8.21792,5.89999 0.22421,3.41059 -0.46122,4.74343 -3.07798,5.98515 -3.08126,1.46216 -10.80069,1.3262 -13.36191,-0.23533 z"
           id="path3428"
           inkscape:connector-curvature="0" />
        <path
           style="fill:#45a467"
           d="m 386.01494,425.14275 c -1.70132,-0.68909 -104.03608,-59.77885 -107.86305,-62.2819 -1.96388,-1.28448 -3.56078,-2.91509 -4.32842,-4.41979 -0.66903,-1.31141 -1.4119,-2.36983 -1.65083,-2.35204 -0.23893,0.0178 -1.23814,1.2754 -2.22048,2.79472 -1.69228,2.61734 -4.05262,4.0712 -44.94929,27.68659 -73.39687,42.38234 -66.43044,38.54753 -70.02668,38.54753 -1.73027,0 -3.8953,-0.32599 -4.81118,-0.72443 -2.19959,-0.95689 -103.758605,-59.5019 -107.768755,-62.12469 -1.708912,-1.11769 -3.528716,-2.84745 -4.043995,-3.8439 -0.515286,-0.99645 -1.193383,-1.6532 -1.506885,-1.45945 -0.342579,0.21173 -0.569999,7.47188 -0.569999,18.19692 0,19.69358 -0.220537,21.13373 -3.495662,22.82736 -0.991873,0.51291 -2.553459,0.93437 -3.470192,0.93655 -1.100156,0.002 -12.69727,-6.30056 -34.1136315,-18.5412 -17.8457625,-10.19986 -33.0757075,-19.10965 -33.8443285,-19.79953 -0.768615,-0.68989 -1.974209,-2.32599 -2.679097,-3.63577 -1.267719,-2.35561 -1.285061,-2.8331 -1.600355,-44.05626 -0.35301,-46.15463 -0.237577,-44.84602 -4.236099,-48.02108 -1.096733,-0.87086 -8.42389,-5.28952 -16.282575,-9.81923 l -14.288516,-8.23584 -3.90988,-0.004 -3.909874,-0.004 -15.093386,8.63264 c -8.30136,4.74796 -15.929,9.45556 -16.95032,10.46133 -1.02132,1.00579 -2.18157,2.91224 -2.57835,4.23656 -0.5336,1.78105 -0.72142,12.7084 -0.72142,41.97077 0,44.34909 0.05,43.75419 -4.00059,47.58291 -1.23785,1.17003 -16.61662,10.34127 -34.17504,20.38052 -35.1146,20.07721 -34.48729,19.80577 -38.16924,16.51595 l -1.94429,-1.73723 0,-84.82627 0,-84.82628 2.43404,-2.87175 c 2.14502,-2.53074 8.79046,-6.53126 55.96336,-33.68959 29.44112,-16.94981 54.436901,-31.12257 55.546178,-31.49502 5.029933,-1.68884 4.019461,-2.19726 62.306958,31.35004 46.178313,26.57787 54.813555,31.75544 56.882597,34.10599 l 2.439354,2.77125 1.15531,-1.48564 c 0.635416,-0.81711 1.648031,-2.02147 2.250256,-2.67636 0.60222,-0.65489 25.44211,-15.25597 55.199744,-32.44685 l 54.104793,-31.25613 3.95831,-0.19533 c 2.87259,-0.14175 4.50559,0.0845 5.95355,0.82479 5.16932,2.64294 106.43715,61.30635 108.26608,62.71742 1.14606,0.88422 2.61956,2.72288 3.27446,4.08592 1.36093,2.83255 1.90032,3.0751 2.62824,1.18186 1.01693,-2.64495 4.73744,-5.59484 13.78027,-10.92598 15.67077,-9.23861 42.90533,-24.97664 47.59213,-27.50205 2.45584,-1.32329 5.93867,-3.2266 7.73962,-4.22958 4.769,-2.65595 8.58009,-2.56625 14.04995,0.33069 4.21126,2.23036 27.42607,15.49981 47.56927,27.19033 6.22146,3.61075 13.71234,7.82554 16.64642,9.3662 2.93403,1.54067 5.40958,3.03393 5.5012,3.31835 0.25987,0.80654 -5.91723,4.50194 -51.02233,30.52388 -12.60664,7.27299 -23.39,13.77402 -23.96303,14.44672 -0.95026,1.11555 -1.04187,3.10527 -1.04187,22.62906 0,12.77169 0.23422,21.84361 0.58069,22.49098 0.31938,0.59677 9.06502,5.98152 19.43476,11.96613 17.53952,10.12244 18.97151,10.83677 20.53838,10.24534 3.25837,-1.2299 37.41414,-21.26307 37.78975,-22.16458 0.20909,-0.50188 0.32971,-60.6135 0.26803,-133.58137 l -0.11211,-132.668858 1.59252,-3.25496 c 1.20422,-2.461343 2.33986,-3.739937 4.65764,-5.244053 2.72643,-1.769271 57.93582,-32.6461441 62.71992,-35.0772809 3.56111,-1.8096458 7.28107,-0.8705172 9.00456,2.2732873 0.9206,1.6792757 1.00913,10.0390506 1.15243,108.8340446 0.11181,77.06205 0.3378,107.01505 0.80736,107.01505 0.3587,0 1.16386,-0.65053 1.78928,-1.44562 0.62542,-0.7951 5.2184,-3.78169 10.2067,-6.63687 4.98824,-2.85517 28.8949,-16.63351 53.12584,-30.61853 24.23094,-13.98502 44.91369,-25.86742 45.96158,-26.40534 1.12742,-0.57872 3.32803,-0.97804 5.38986,-0.97804 3.27928,0 3.99096,0.29127 12.08547,4.94621 23.17579,13.32777 99.20481,57.67138 99.988,58.31761 0.49117,0.40526 1.76374,1.75082 2.82794,2.99014 l 1.9349,2.25329 0,18.49415 c 0,20.36147 -0.0447,20.64941 -3.74395,24.17913 -3.09543,2.95345 -66.4319,39.44427 -68.46277,39.44427 -2.22657,0 -4.90954,-1.59128 -5.73404,-3.40086 -0.41038,-0.90068 -0.64608,-6.93571 -0.64608,-16.54224 0,-8.64662 -0.27732,-16.41725 -0.64745,-18.14323 l -0.64745,-3.01899 -6.94332,-4.08557 c -28.86733,-16.98603 -30.72502,-17.85761 -34.21993,-16.05548 -0.71526,0.3688 -8.74439,4.9549 -17.84261,10.19135 -12.46447,7.17388 -16.75709,9.93646 -17.41413,11.20699 -1.26715,2.4504 -1.29091,42.07375 -0.0268,44.51848 0.6106,1.18071 4.37116,3.65843 13.54432,8.92396 24.31049,13.95449 25.9286,15.15922 27.24172,20.2819 0.30202,1.17847 0.73687,18.8936 0.9662,39.36697 l 0.41704,37.22432 -1.57894,1.87651 c -2.57854,3.06441 -4.50725,3.09832 -10.11555,0.17783 -2.65469,-1.38242 -26.92927,-15.10199 -53.9435,-30.48792 -39.28782,-22.37633 -49.62705,-28.51467 -51.6668,-30.67411 -1.40254,-1.48484 -2.64218,-2.59697 -2.75477,-2.47141 -0.11258,0.12555 -0.77098,1.35138 -1.46308,2.72405 -0.69216,1.37267 -2.13161,3.15026 -3.19884,3.9502 -2.46834,1.85016 -101.53325,59.50971 -107.43747,62.53269 -2.01414,1.03125 -7.32864,1.25935 -9.43782,0.40508 z M 172.65747,324.80345 c 9.86312,-5.68918 18.44218,-10.80482 19.06459,-11.36809 1.07225,-0.97037 1.13149,-2.15202 1.12869,-22.51347 -0.003,-21.40958 -0.008,-21.49512 -1.33955,-23.04729 -1.26752,-1.47744 -33.12705,-20.1741 -36.63056,-21.49652 -1.52735,-0.57651 -3.11206,0.21717 -20.66747,10.35101 -15.02435,8.67279 -19.09871,11.28158 -19.42045,12.43478 -0.22394,0.80266 -0.43387,10.99564 -0.46651,22.65105 -0.0571,20.39375 -0.015,21.23177 1.11774,22.25692 2.59933,2.35236 37.21304,21.7318 38.23561,21.40725 0.57473,-0.18242 9.11479,-4.98645 18.97791,-10.67564 z m 446.29659,-12.23557 c -2.7531,-1.72873 -3.22319,-2.95311 -1.13069,-2.94495 0.55374,0.002 1.81047,0.53621 2.79281,1.18678 0.98233,0.65058 2.19834,1.18464 2.70231,1.18679 0.50391,0.002 5.19233,-2.47647 10.41871,-5.50807 l 9.50246,-5.512 0.16122,-11.7013 0.16128,-11.70129 -8.49625,-4.8972 c -4.67288,-2.69346 -9.2121,-5.30746 -10.08709,-5.80888 -1.55084,-0.88872 -1.82084,-0.77972 -10.71639,4.32635 -5.01902,2.88092 -9.59992,5.65208 -10.17985,6.15813 -0.9512,0.83007 -1.03854,2.03149 -0.89304,12.27711 l 0.16134,11.35701 3.83058,2.02532 c 3.55069,1.87737 3.94214,1.96276 5.35819,1.16885 l 1.52762,-0.85647 0.29768,-11.58756 c 0.251,-9.77085 0.4377,-11.58757 1.19071,-11.58757 0.75675,0 0.91786,1.72516 1.0555,11.30431 0.10479,7.28798 -0.072,11.8705 -0.49753,12.8979 -0.78736,1.90083 -3.49456,3.16239 -5.79781,2.70175 -2.64189,-0.52839 -8.28805,-4.03958 -8.99664,-5.59477 -0.39264,-0.86176 -0.64739,-5.80857 -0.64739,-12.57208 0,-8.86023 0.18027,-11.40862 0.87737,-12.40389 0.99157,-1.41565 20.36935,-12.70548 21.80761,-12.70548 1.41695,0 19.69386,10.56483 21.22244,12.26748 1.2949,1.44232 1.33955,1.88965 1.33955,13.41103 0,11.62991 -0.0327,11.94805 -1.34717,13.11889 -2.52306,2.24734 -19.7559,11.80782 -21.26322,11.79646 -0.82582,-0.006 -2.78525,-0.81741 -4.35431,-1.80265 z m 4.57227,-13.6534 c -1.62913,-0.65824 -3.80319,-3.43357 -3.80319,-4.85499 0,-1.53614 2.16203,-1.44207 3.00375,0.13069 1.89215,3.53555 11.13665,3.82531 12.22912,0.38331 0.56761,-1.78852 -1.45225,-3.21065 -5.25704,-3.70125 -7.16045,-0.92329 -9.38047,-2.3407 -9.38047,-5.98916 0,-4.30966 6.23414,-6.78273 12.6242,-5.008 2.21478,0.61512 4.64109,2.98875 4.64109,4.54031 0,1.43838 -1.89216,1.68597 -2.94534,0.3854 -1.48166,-1.82981 -3.25766,-2.56811 -6.17758,-2.56811 -3.03619,0 -5.58967,1.60829 -4.99866,3.14839 0.38156,0.99435 2.57687,1.74376 8.28067,2.82678 4.48374,0.85135 6.43626,2.40494 6.43626,5.12124 0,2.84582 -0.92101,4.33089 -3.30326,5.32625 -2.19043,0.91522 -9.32272,1.07807 -11.34955,0.25914 z"
           id="path3426"
           inkscape:connector-curvature="0" />
        <path
           style="fill:#656565"
           d="m 386.01494,425.14275 c -1.70132,-0.68909 -104.03608,-59.77885 -107.86305,-62.2819 -1.96388,-1.28448 -3.56078,-2.91509 -4.32842,-4.41979 -0.66903,-1.31141 -1.4119,-2.36983 -1.65083,-2.35204 -0.23893,0.0178 -1.23814,1.2754 -2.22048,2.79472 -1.69228,2.61734 -4.05262,4.0712 -44.94929,27.68659 -73.39687,42.38234 -66.43044,38.54753 -70.02668,38.54753 -1.73027,0 -3.8953,-0.32599 -4.81118,-0.72443 -2.19959,-0.95689 -103.758605,-59.5019 -107.768755,-62.12469 -1.708912,-1.11769 -3.528716,-2.84745 -4.043995,-3.8439 -0.515286,-0.99645 -1.193383,-1.6532 -1.506885,-1.45945 -0.342579,0.21173 -0.569999,7.47188 -0.569999,18.19692 0,19.69358 -0.220537,21.13373 -3.495662,22.82736 -0.991873,0.51291 -2.553459,0.93437 -3.470192,0.93655 -1.100156,0.002 -12.69727,-6.30056 -34.1136315,-18.5412 -17.8457625,-10.19986 -33.0757075,-19.10965 -33.8443285,-19.79953 -0.768615,-0.68989 -1.974209,-2.32599 -2.679097,-3.63577 -1.267719,-2.35561 -1.285061,-2.8331 -1.600355,-44.05626 -0.35301,-46.15463 -0.237577,-44.84602 -4.236099,-48.02108 -1.096733,-0.87086 -8.42389,-5.28952 -16.282575,-9.81923 l -14.288516,-8.23584 -3.90988,-0.004 -3.909874,-0.004 -15.093386,8.63264 c -8.30136,4.74796 -15.929,9.45556 -16.95032,10.46133 -1.02132,1.00579 -2.18157,2.91224 -2.57835,4.23656 -0.5336,1.78105 -0.72142,12.7084 -0.72142,41.97077 0,44.34909 0.05,43.75419 -4.00059,47.58291 -1.23785,1.17003 -16.61662,10.34127 -34.17504,20.38052 -35.1146,20.07721 -34.48729,19.80577 -38.16924,16.51595 l -1.94429,-1.73723 0,-84.82627 0,-84.82628 2.43404,-2.87175 c 2.14502,-2.53074 8.79046,-6.53126 55.96336,-33.68959 29.44112,-16.94981 54.436901,-31.12257 55.546178,-31.49502 5.029933,-1.68884 4.019461,-2.19726 62.306958,31.35004 46.178313,26.57787 54.813555,31.75544 56.882597,34.10599 l 2.439354,2.77125 1.15531,-1.48564 c 0.635416,-0.81711 1.648031,-2.02147 2.250256,-2.67636 0.60222,-0.65489 25.44211,-15.25597 55.199744,-32.44685 l 54.104793,-31.25613 3.95831,-0.19533 c 2.87259,-0.14175 4.50559,0.0845 5.95355,0.82479 5.16932,2.64294 106.43715,61.30635 108.26608,62.71742 1.14606,0.88422 2.61956,2.72288 3.27446,4.08592 1.36093,2.83255 1.90032,3.0751 2.62824,1.18186 1.01693,-2.64495 4.73744,-5.59484 13.78027,-10.92598 15.67077,-9.23861 42.90533,-24.97664 47.59213,-27.50205 2.45584,-1.32329 5.93867,-3.2266 7.73962,-4.22958 4.769,-2.65595 8.58009,-2.56625 14.04995,0.33069 4.21126,2.23036 27.42607,15.49981 47.56927,27.19033 6.22146,3.61075 13.71234,7.82554 16.64642,9.3662 2.93403,1.54067 5.40958,3.03393 5.5012,3.31835 0.25987,0.80654 -5.91723,4.50194 -51.02233,30.52388 -12.60664,7.27299 -23.39,13.77402 -23.96303,14.44672 -0.95026,1.11555 -1.04187,3.10527 -1.04187,22.62906 0,12.77169 0.23422,21.84361 0.58069,22.49098 0.31938,0.59677 9.06502,5.98152 19.43476,11.96613 17.53952,10.12244 18.97151,10.83677 20.53838,10.24534 3.25837,-1.2299 37.41414,-21.26307 37.78975,-22.16458 0.20909,-0.50188 0.32971,-60.6135 0.26803,-133.58137 l -0.11211,-132.668858 1.59252,-3.25496 c 1.20422,-2.461343 2.33986,-3.739937 4.65764,-5.244053 2.72643,-1.769271 57.93582,-32.6461441 62.71992,-35.0772809 3.56111,-1.8096458 7.28107,-0.8705172 9.00456,2.2732873 0.9206,1.6792757 1.00913,10.0390506 1.15243,108.8340446 0.11181,77.06205 0.3378,107.01505 0.80736,107.01505 0.3587,0 1.16386,-0.65053 1.78928,-1.44562 0.62542,-0.7951 5.2184,-3.78169 10.2067,-6.63687 4.98824,-2.85517 28.8949,-16.63351 53.12584,-30.61853 24.23094,-13.98502 44.91369,-25.86742 45.96158,-26.40534 1.12742,-0.57872 3.32803,-0.97804 5.38986,-0.97804 3.27928,0 3.99096,0.29127 12.08547,4.94621 23.17579,13.32777 99.20481,57.67138 99.988,58.31761 0.49117,0.40526 1.76374,1.75082 2.82794,2.99014 l 1.9349,2.25329 0,18.49415 c 0,20.36147 -0.0447,20.64941 -3.74395,24.17913 -3.09543,2.95345 -66.4319,39.44427 -68.46277,39.44427 -2.22657,0 -4.90954,-1.59128 -5.73404,-3.40086 -0.41038,-0.90068 -0.64608,-6.93571 -0.64608,-16.54224 0,-8.64662 -0.27732,-16.41725 -0.64745,-18.14323 l -0.64745,-3.01899 -6.94332,-4.08557 c -28.86733,-16.98603 -30.72502,-17.85761 -34.21993,-16.05548 -0.71526,0.3688 -8.74439,4.9549 -17.84261,10.19135 -12.46447,7.17388 -16.75709,9.93646 -17.41413,11.20699 -1.26715,2.4504 -1.29091,42.07375 -0.0268,44.51848 0.6106,1.18071 4.37116,3.65843 13.54432,8.92396 24.31049,13.95449 25.9286,15.15922 27.24172,20.2819 0.30202,1.17847 0.73687,18.8936 0.9662,39.36697 l 0.41704,37.22432 -1.57894,1.87651 c -2.57854,3.06441 -4.50725,3.09832 -10.11555,0.17783 -2.65469,-1.38242 -26.92927,-15.10199 -53.9435,-30.48792 -39.28782,-22.37633 -49.62705,-28.51467 -51.6668,-30.67411 -1.40254,-1.48484 -2.64218,-2.59697 -2.75477,-2.47141 -0.11258,0.12555 -0.77098,1.35138 -1.46308,2.72405 -0.69216,1.37267 -2.13161,3.15026 -3.19884,3.9502 -2.46834,1.85016 -101.53325,59.50971 -107.43747,62.53269 -2.01414,1.03125 -7.32864,1.25935 -9.43782,0.40508 z M 172.65747,324.80345 c 9.86312,-5.68918 18.44218,-10.80482 19.06459,-11.36809 1.07225,-0.97037 1.13149,-2.15202 1.12869,-22.51347 -0.003,-21.40958 -0.008,-21.49512 -1.33955,-23.04729 -1.26752,-1.47744 -33.12705,-20.1741 -36.63056,-21.49652 -1.52735,-0.57651 -3.11206,0.21717 -20.66747,10.35101 -15.02435,8.67279 -19.09871,11.28158 -19.42045,12.43478 -0.22394,0.80266 -0.43387,10.99564 -0.46651,22.65105 -0.0571,20.39375 -0.015,21.23177 1.11774,22.25692 2.59933,2.35236 37.21304,21.7318 38.23561,21.40725 0.57473,-0.18242 9.11479,-4.98645 18.97791,-10.67564 z"
           id="path3424"
           inkscape:connector-curvature="0" />
        <path
           style="fill:#515151"
           d="m 386.64171,425.27761 c -0.65489,-0.16363 -1.32466,-0.47887 -1.48838,-0.70056 -0.16373,-0.22168 -24.14164,-14.15303 -53.28426,-30.95853 -29.14262,-16.8055 -53.83283,-31.18918 -54.86712,-31.96373 -1.03429,-0.77455 -2.37384,-2.47803 -2.97678,-3.78551 -0.60293,-1.30747 -1.36415,-2.38208 -1.69159,-2.388 -0.32745,-0.006 -1.19843,1.04538 -1.93551,2.33622 -0.73709,1.29085 -2.21059,2.99624 -3.27445,3.78974 -1.06387,0.79351 -26.13583,15.40801 -55.71548,32.47668 -59.27613,34.20475 -55.75824,32.50091 -61.457,29.76595 -2.32674,-1.11666 -84.018441,-48.10849 -102.556833,-58.99417 -5.650329,-3.31785 -7.366635,-4.64951 -8.697748,-6.74845 -0.912089,-1.43822 -1.829984,-2.44331 -2.039763,-2.23353 -0.209779,0.20978 -0.396542,8.44104 -0.415022,18.29168 -0.03632,19.35687 -0.267183,21.08569 -3.095797,23.18293 -3.342739,2.47842 -3.513886,2.40057 -37.6927801,-17.14602 -17.6598329,-10.0995 -32.8803719,-19.06108 -33.8234139,-19.91462 -0.943042,-0.85355 -2.28259,-2.7575 -2.976774,-4.231 -1.2366,-2.62486 -1.269362,-3.51688 -1.618109,-44.05627 -0.195777,-22.75744 -0.541428,-42.18089 -0.768109,-43.16323 l -0.412152,-1.78606 38.8212031,-22.27215 38.8211979,-22.27216 1.262694,1.58357 c 1.516541,1.90192 1.919567,1.94881 3.206277,0.37304 0.971524,-1.18978 1.63469,-0.83043 38.696763,20.96897 l 37.708296,22.1795 -0.17592,22.79811 c -0.16961,21.98175 -0.13417,22.83785 0.98977,23.90845 0.64113,0.61069 9.1832,5.7212 18.9824,11.35669 13.97672,8.03798 18.14696,10.18007 19.34903,9.93885 1.43277,-0.28752 36.46161,-20.182 38.47023,-21.84902 0.80493,-0.66803 0.89721,-3.61757 0.74416,-23.78666 l -0.17471,-23.02407 38.02716,-22.14061 c 29.95653,-17.44164 38.20055,-21.9967 38.84416,-21.46255 0.44935,0.37293 1.12856,1.71791 1.50934,2.98885 0.38079,1.27093 0.91424,2.31079 1.18546,2.31079 0.27122,0 0.89713,-0.96691 1.39091,-2.14868 0.62982,-1.50737 1.169,-2.0446 1.80649,-1.79997 0.4998,0.19179 17.44655,10.01096 37.65944,21.82037 l 36.75072,21.47168 0,22.87449 c 0,19.54624 0.12994,23.00209 0.89303,23.75141 0.94938,0.93224 32.54735,19.31851 36.67572,21.34091 l 2.4428,1.19668 18.39461,-10.58296 c 10.11704,-5.82063 18.88745,-11.04361 19.48983,-11.60664 1.05557,-0.98655 1.10528,-5.86727 1.37045,-134.59483 0.26232,-127.348668 0.32542,-133.682855 1.35414,-135.968696 0.59345,-1.318642 1.71819,-2.973834 2.49942,-3.678205 0.78122,-0.704371 15.21774,-8.969377 32.08117,-18.366678 C 481.7943,12.96231 496.427,4.7645701 497.44797,4.1424119 c 3.46092,-2.1089737 7.01471,-1.1276578 8.86346,2.4475082 0.77938,1.5071853 0.89066,14.8369619 0.8978,107.5742599 0.006,58.21965 0.16819,106.45123 0.36388,107.1813 0.24576,0.9167 0.76271,1.29373 1.67086,1.21856 0.777,-0.0643 12.0145,6.06649 27.4689,14.98615 48.03002,27.72104 48.5984,28.06552 48.06717,29.13187 -0.26428,0.53043 -0.55737,10.27989 -0.65138,21.66547 -0.18944,22.95438 -0.12734,23.39894 3.60071,25.77492 1.06056,0.67595 7.15259,4.2486 13.53777,7.93923 20.00047,11.56023 21.32561,12.42587 23.08024,15.07669 1.5484,2.33914 1.64592,2.92028 2.01843,12.02766 0.21534,5.26336 0.41628,22.78492 0.44652,38.93678 l 0.0548,29.36703 -1.74028,1.74027 c -2.25967,2.2597 -4.17617,2.22779 -8.67843,-0.14447 -1.96467,-1.03519 -26.07654,-14.69928 -53.58193,-30.36463 -42.20429,-24.03694 -50.40227,-28.9181 -52.52447,-31.27357 -1.38307,-1.53511 -2.62272,-2.67245 -2.75477,-2.52744 -0.13205,0.14501 -0.78432,1.33529 -1.44945,2.64508 -0.66513,1.30978 -1.97062,3.07543 -2.9011,3.92366 -1.5228,1.38822 -30.0194,18.11009 -89.07468,52.26923 -19.31634,11.17309 -20.89158,11.97062 -23.5165,11.90618 -1.54705,-0.038 -3.34889,-0.20293 -4.00378,-0.36654 z m -583.73536,-29.1833 -1.79476,-1.63723 -0.39182,-81.8613 c -0.21549,-45.02372 -0.20141,-83.12039 0.0313,-84.65927 0.30649,-2.02682 0.74367,-2.89972 1.58623,-3.16713 0.83989,-0.26657 11.70923,5.66104 39.1126,21.33012 37.39686,21.38331 37.94621,21.72418 37.72565,23.4092 -0.12309,0.94045 -0.391,20.46359 -0.59535,43.38476 -0.40793,45.75714 -0.18764,43.20231 -4.03935,46.8461 -0.92972,0.87952 -16.02355,9.78719 -33.54187,19.79483 -34.9663,19.97508 -34.54813,19.79329 -38.09263,16.55992 z m 863.10563,-90.69048 c -2.52382,-1.46998 -2.7322,-3.05441 -2.87991,-21.89347 l -0.1411,-18.00527 37.75277,-21.09225 c 20.76395,-11.60074 38.32424,-21.09856 39.02283,-21.10627 0.82058,-0.009 1.39712,0.46003 1.62907,1.32552 0.19748,0.73675 0.36263,9.32913 0.36709,19.09418 l 0.008,17.75463 -1.55507,2.65357 c -0.85534,1.45946 -2.66374,3.39917 -4.01864,4.31047 -1.35497,0.91129 -16.41102,9.74453 -33.45788,19.62941 -26.55401,15.39779 -31.33025,17.96993 -33.33987,17.95442 -1.29007,-0.01 -2.81442,-0.29118 -3.38745,-0.62494 z"
           id="path3422"
           inkscape:connector-curvature="0" />
        <path
           style="fill:#2f2f2f"
           d="m 387.0794,425.32246 c -0.74161,-0.15935 -1.19464,-0.53849 -1.00673,-0.84252 0.1879,-0.30403 0.0562,-0.55279 -0.29279,-0.55279 -0.90538,0 -107.82838,-61.79538 -109.35197,-63.19919 -0.69513,-0.64047 -1.74048,-2.22143 -2.323,-3.51324 -0.58253,-1.29181 -1.27813,-2.34874 -1.54578,-2.34874 -0.26765,0 -1.39033,1.40652 -2.49485,3.12561 -2.00075,3.11401 -2.21029,3.24214 -56.42817,34.50415 -29.93097,17.2582 -54.74354,31.65835 -55.13902,32.00033 -0.86758,0.75021 -6.33405,0.84226 -5.87464,0.0989 0.17773,-0.28757 -0.4612,-0.67973 -1.41986,-0.87147 -1.7431,-0.34862 -108.289287,-61.55982 -110.376565,-63.41176 -0.60787,-0.53934 -1.617978,-1.98528 -2.244679,-3.2132 -1.227639,-2.40535 -1.967909,-2.78158 -2.53995,-1.29085 -0.198759,0.51794 -0.361375,9.05107 -0.361375,18.96251 0,11.65351 -0.233164,18.68964 -0.659903,19.91379 -0.734829,2.10793 -3.149725,3.64288 -5.731261,3.64288 -1.12484,0 -12.690197,-6.3037 -34.6881368,-18.90677 -34.8595752,-19.97177 -34.8953802,-19.99651 -36.3072872,-25.07946 -0.373139,-1.34334 -0.599505,-17.11459 -0.601577,-41.91284 -0.003,-34.30364 -0.128073,-40.05764 -0.912524,-41.93509 -0.736162,-1.76188 -0.764489,-2.31136 -0.148839,-2.88712 0.418201,-0.3911 17.894439,-10.55159 38.8360816,-22.57888 l 38.0757234,-21.86779 1.240065,1.55518 c 1.451957,1.82094 1.989075,1.91856 2.994028,0.54421 0.674543,-0.9225 1.182821,-0.75314 5.806889,1.9349 2.787201,1.62024 19.697036,11.519 37.577406,21.99725 l 32.509764,19.05136 -0.0751,22.601 -0.0751,22.601 1.84515,1.51087 c 1.01483,0.83098 9.76923,6.04528 19.45424,11.58734 l 17.6091,10.07647 2.5007,-1.21531 c 5.29003,-2.57089 37.0704,-21.15225 37.80412,-22.10333 0.60631,-0.78593 0.75225,-5.85952 0.6773,-23.54691 l -0.0955,-22.54514 37.70627,-21.9532 c 40.84639,-23.78143 38.8311,-22.85334 39.7602,-18.31057 0.54377,2.65875 2.19893,2.99101 2.73526,0.54911 0.21976,-1.00057 0.71317,-1.81528 1.09646,-1.81047 0.38328,0.005 17.30728,9.71916 37.60889,21.58744 l 36.912,21.57869 0.29767,22.74587 c 0.25099,19.17834 0.43775,22.87774 1.19071,23.58659 1.7886,1.68379 37.41733,21.82404 38.60742,21.82404 1.20834,0 37.69576,-20.71526 39.33656,-22.33281 0.72634,-0.71606 0.82475,-19.58802 0.69794,-133.87996 -0.14414,-129.85653 -0.12038,-133.108057 0.99007,-135.618318 0.62572,-1.414558 2.05427,-3.375653 3.17449,-4.357989 1.12028,-0.982335 15.96694,-9.545072 32.99266,-19.028304 17.02573,-9.483231 31.33871,-17.6163407 31.80666,-18.0735762 1.14195,-1.1158221 5.21817,-0.5505002 6.37137,0.8836299 2.71988,3.382422 2.60116,-1.7045089 2.60116,111.4763873 0,83.78913 0.15676,106.6494 0.73372,107.00599 0.40353,0.2494 1.1735,0.48587 1.71093,0.52546 0.53749,0.0396 4.82874,2.29593 9.53616,5.01408 4.70741,2.71814 20.88278,12.05131 35.94526,20.74037 15.06248,8.68905 27.82873,16.17471 28.36943,16.6348 0.79319,0.67493 0.87363,1.23296 0.41639,2.88894 -0.32339,1.17118 -0.48985,10.42079 -0.38775,21.54253 0.15432,16.80455 0.315,19.73809 1.16612,21.28969 0.73211,1.33452 3.6553,3.3249 11.31174,7.70205 13.49646,7.71582 24.93031,14.5574 26.31368,15.7451 1.45951,1.25306 3.11335,4.60766 3.54968,7.20013 0.1929,1.14605 0.4177,18.48482 0.4995,38.53058 l 0.14872,36.44684 -1.41581,1.50704 c -2.24354,2.38817 -4.51213,2.0077 -11.80166,-1.97928 -20.52176,-11.22427 -100.15875,-57.09214 -101.77538,-58.61873 -1.06175,-1.00263 -2.08445,-2.30815 -2.27271,-2.90116 -0.60035,-1.89155 -1.80291,-1.16696 -3.2732,1.97221 -0.78581,1.67772 -2.23811,3.65624 -3.22742,4.39672 -1.79928,1.34682 -43.68475,25.81334 -85.1483,49.73766 -12.11547,6.99058 -22.20441,12.96731 -22.41985,13.28161 -0.43549,0.63531 -5.998,1.0373 -8.10092,0.58544 z m -582.18453,-28.15874 c -0.70171,-0.29557 -1.66342,-1.09075 -2.13714,-1.76707 -0.47371,-0.67632 -0.99412,-1.09685 -1.15646,-0.93451 -0.75799,0.758 -1.46884,-163.75047 -0.72367,-167.47633 0.2726,-1.36299 0.63959,-1.76046 1.47663,-1.59926 0.61263,0.11798 18.15402,9.92084 38.98088,21.78414 37.0975,21.13131 37.85784,21.60086 37.41597,23.10645 -0.24808,0.84526 -0.60556,20.29051 -0.79441,43.21167 -0.24838,30.14666 -0.53571,42.00422 -1.03869,42.86556 -0.38243,0.65489 -1.58803,2.02024 -2.6791,3.03412 -2.52319,2.34467 -64.22922,37.68491 -66.4276,38.04438 -0.90231,0.14754 -2.21469,0.0264 -2.91641,-0.26915 z m 860.53117,-92.85339 -1.94431,-1.73654 0,-18.24795 0,-18.24795 37.79503,-21.095 c 20.78723,-11.60225 38.26328,-21.095 38.83553,-21.095 0.58279,0 1.18815,0.58929 1.37599,1.33955 0.1845,0.73675 0.25659,9.41698 0.16021,19.2894 l -0.17528,17.94985 -2.38142,2.7953 c -2.0114,2.36096 -7.46366,5.74674 -35.08938,21.79009 -24.91751,14.47055 -33.17532,18.99479 -34.67001,18.99479 -1.32633,0 -2.59206,-0.56265 -3.90636,-1.73654 z"
           id="path3420"
           inkscape:connector-curvature="0" />
        <path
           style="fill:#000000"
           d="m 391.10688,381.4923 0,-44.22092 17.98406,-10.4029 c 9.89122,-5.72159 18.66527,-10.98231 19.49787,-11.69047 l 1.51381,-1.28758 -0.0125,-13.00094 c -0.007,-7.15052 -0.0726,-67.17133 -0.14622,-133.37959 -0.0928,-83.438247 0.0595,-120.890842 0.49545,-122.047758 0.34608,-0.918013 1.45773,-2.52808 2.47031,-3.577926 1.06628,-1.105537 15.19339,-9.355757 33.57003,-19.604904 17.45093,-9.732851 31.60662,-17.8940382 31.45713,-18.135972 -0.41866,-0.6773967 2.96254,-1.2421744 4.75033,-0.7934684 0.87589,0.2198342 1.44368,0.5485804 1.26168,0.7305471 -0.18194,0.1819667 0.2744,0.9750707 1.01419,1.7624533 l 1.34496,1.4316047 0.47712,108.4555533 c 0.26237,59.65055 0.43669,137.38979 0.3874,172.75387 -0.099,71.00956 0.0542,68.14488 -3.84445,71.96146 -1.04639,1.0244 -8.57335,5.73451 -16.72661,10.4669 -33.56361,19.48139 -66.82239,38.73327 -79.36843,45.94253 -7.33911,4.21724 -12.96522,7.69442 -12.50244,7.72706 0.8704,0.0614 -1.56205,0.96696 -2.87956,1.07202 -0.58921,0.047 -0.74419,-9.15009 -0.74419,-44.16157 z m -236.50472,43.2054 c 0.73675,-0.14191 1.94234,-0.14191 2.67909,0 0.73675,0.1419 0.13396,0.25801 -1.33955,0.25801 -1.4735,0 -2.0763,-0.11611 -1.33954,-0.25801 z m -1.04188,-44.48902 c 0,-41.11111 0.0621,-43.7386 1.04188,-44.05609 0.57302,-0.1857 9.34707,-5.12599 19.49787,-10.97844 11.98713,-6.91119 18.71873,-11.13688 19.20558,-12.05611 0.56684,-1.07026 0.73476,-6.77951 0.68877,-23.41881 l -0.0608,-22.00351 37.10543,-21.60624 c 20.40799,-11.88342 37.44009,-21.60623 37.84911,-21.60623 0.40902,0 0.89336,0.73675 1.07631,1.63723 0.18295,0.90047 0.72387,2.39569 1.20205,3.32269 0.74577,1.44576 0.86942,10.39557 0.86942,62.92689 l 0,61.24142 -2.02875,3.46153 -2.02875,3.46153 -44.26009,25.56782 c -70.17644,40.539 -65.30601,37.82479 -67.8736,37.82479 l -2.28443,0 0,-43.71847 z M -5.4201291,378.82901 -38.441659,359.9265 l -1.637226,-3.23237 -1.637226,-3.23237 0,-40.00485 c 0,-33.19726 -0.145106,-40.41613 -0.852709,-42.42169 -0.651229,-1.84577 -0.686396,-2.54804 -0.148839,-2.97212 0.38713,-0.3054 16.912407,-9.86019 36.7228398,-21.23285 C 13.815614,235.45758 30.866018,225.63907 31.894969,225.01133 l 1.870814,-1.14133 1.265278,2.14448 1.265278,2.14449 -0.294898,63.50234 c -0.309394,66.62458 -0.889204,102.14344 -1.693719,103.757 -0.613924,1.2313 -2.98824,2.31322 -5.076442,2.31322 -1.048682,0 -13.405052,-6.74046 -34.6514091,-18.90252 z M 665.74753,304.0154 l -1.67045,-1.4361 -0.17349,-17.82007 -0.17348,-17.82007 38.5656,-21.52704 c 32.89288,-18.36058 38.62632,-21.3736 38.97853,-20.48377 0.50731,1.28168 0.62001,35.05293 0.12318,36.90672 -0.19652,0.73308 -0.57541,1.19802 -0.84207,1.03323 -0.26666,-0.16479 -0.64113,0.19291 -0.83218,0.79491 -0.19105,0.60199 -1.08105,1.79435 -1.97777,2.64969 -0.89673,0.85535 -16.17716,10.01145 -33.95654,20.3469 -34.87726,20.27474 -34.72616,20.20579 -38.04133,17.3556 z"
           id="path3418"
           inkscape:connector-curvature="0" />
      </g>
    </g>
  </g>
</svg>
